<?xml version="1.0" encoding="iso-8859-1"?>
<!-- Generator: Adobe Illustrator 28.1.0, SVG Export Plug-In . SVG Version: 6.00 Build 0)  -->
<svg version="1.1" id="Layer_1" xmlns="http://www.w3.org/2000/svg" xmlns:xlink="http://www.w3.org/1999/xlink" x="0px" y="0px"
	 viewBox="0 0 650 200" style="enable-background:new 0 0 650 200;" xml:space="preserve">
<g>
	<g>
		<path style="fill:#010101;" d="M25,73.321h14.594l36.046,58.158h0.221V73.321h13.158v78.945H74.424L38.489,94.218h-0.331v58.048
			H25V73.321z"/>
		<path style="fill:#010101;" d="M98.748,73.321h56.833v11.941H112.57v20.676h39.805v11.277H112.57v23.108h43.784v11.941H98.748
			V73.321z"/>
		<path style="fill:#010101;" d="M154.918,73.321h16.473l17.913,27.863l18.686-27.863h15.479l-26.093,38.035l27.973,40.91h-16.806
			l-19.681-30.185l-20.014,30.185h-15.81l27.973-40.91L154.918,73.321z"/>
		<path style="fill:#010101;" d="M226.785,73.321h34.83c5.6,0,10.171,0.812,13.71,2.433c3.538,1.622,6.265,3.649,8.182,6.081
			c1.916,2.433,3.225,5.087,3.925,7.961c0.701,2.875,1.051,5.529,1.051,7.961c0,2.433-0.35,5.069-1.051,7.906
			c-0.701,2.838-2.009,5.473-3.925,7.906c-1.916,2.432-4.643,4.441-8.182,6.025c-3.538,1.586-8.11,2.378-13.71,2.378h-21.008v30.295
			h-13.822V73.321z M240.606,110.692h20.234c1.548,0,3.132-0.221,4.754-0.663c1.62-0.442,3.114-1.161,4.479-2.156
			c1.363-0.995,2.468-2.322,3.318-3.98c0.846-1.659,1.27-3.74,1.27-6.247c0-2.579-0.37-4.717-1.105-6.413
			c-0.737-1.695-1.732-3.04-2.985-4.036c-1.254-0.995-2.692-1.675-4.312-2.045c-1.622-0.369-3.354-0.554-5.197-0.554h-20.455
			V110.692z"/>
		<path style="fill:#010101;" d="M293.569,73.321h13.822v31.401h35.933V73.321h13.822v78.945h-13.822v-35.602H307.39v35.602h-13.822
			V73.321z"/>
		<path style="fill:#010101;" d="M400.707,71.441c5.898,0,11.186,1.105,15.868,3.317c4.68,2.211,8.64,5.197,11.886,8.956
			c3.242,3.76,5.729,8.146,7.463,13.158c1.73,5.014,2.598,10.321,2.598,15.922c0,5.677-0.867,11.02-2.598,16.032
			c-1.734,5.014-4.221,9.398-7.463,13.158c-3.246,3.759-7.206,6.727-11.886,8.901c-4.682,2.174-9.97,3.261-15.868,3.261
			c-5.898,0-11.186-1.088-15.866-3.261c-4.682-2.174-8.644-5.142-11.886-8.901c-3.244-3.76-5.731-8.144-7.463-13.158
			c-1.732-5.012-2.598-10.355-2.598-16.032c0-5.601,0.865-10.908,2.598-15.922c1.732-5.012,4.219-9.398,7.463-13.158
			c3.242-3.759,7.204-6.744,11.886-8.956C389.521,72.547,394.809,71.441,400.707,71.441z M400.707,82.719
			c-4.2,0-7.833,0.849-10.889,2.543c-3.06,1.697-5.547,3.963-7.463,6.8c-1.918,2.838-3.337,6.064-4.258,9.675
			c-0.921,3.613-1.382,7.298-1.382,11.057c0,3.759,0.461,7.446,1.382,11.057c0.921,3.613,2.34,6.838,4.258,9.675
			c1.916,2.838,4.403,5.105,7.463,6.8c3.056,1.697,6.689,2.543,10.889,2.543c4.202,0,7.831-0.847,10.891-2.543
			c3.058-1.695,5.545-3.961,7.463-6.8c1.916-2.837,3.335-6.062,4.256-9.675c0.921-3.611,1.382-7.298,1.382-11.057
			c0-3.759-0.461-7.444-1.382-11.057c-0.921-3.611-2.34-6.836-4.256-9.675c-1.918-2.837-4.405-5.103-7.463-6.8
			C408.538,83.568,404.909,82.719,400.707,82.719z"/>
		<path style="fill:#010101;" d="M444.491,73.321h37.704c8.696,0,15.221,1.879,19.57,5.639c4.349,3.759,6.523,8.994,6.523,15.7
			c0,3.76-0.552,6.874-1.657,9.343c-1.107,2.471-2.396,4.46-3.871,5.971c-1.475,1.512-2.93,2.598-4.367,3.261
			c-1.438,0.664-2.489,1.105-3.151,1.327v0.221c1.177,0.149,2.448,0.517,3.813,1.106c1.365,0.591,2.636,1.531,3.815,2.819
			c1.179,1.291,2.156,2.968,2.93,5.031c0.774,2.064,1.161,4.643,1.161,7.739c0,4.644,0.348,8.865,1.051,12.66
			c0.699,3.797,1.785,6.506,3.261,8.126h-14.817c-1.034-1.695-1.641-3.574-1.825-5.639c-0.184-2.062-0.275-4.053-0.275-5.97
			c0-3.611-0.223-6.726-0.664-9.343c-0.443-2.616-1.254-4.79-2.433-6.524c-1.179-1.731-2.783-3.003-4.81-3.815
			c-2.028-0.81-4.626-1.216-7.794-1.216h-20.345v32.507h-13.822V73.321z M458.313,109.255h22.667c4.423,0,7.775-1.05,10.061-3.151
			c2.284-2.101,3.428-5.252,3.428-9.453c0-2.506-0.37-4.55-1.105-6.137c-0.739-1.584-1.754-2.82-3.041-3.705
			c-1.291-0.885-2.764-1.473-4.423-1.769c-1.659-0.293-3.374-0.442-5.143-0.442h-22.445V109.255z"/>
		<path style="fill:#010101;" d="M515.698,73.321h13.822v78.945h-13.822V73.321z"/>
		<path style="fill:#010101;" d="M568.329,86.921h-0.333l-23.108,65.345h-14.263l30.295-78.945h14.706l30.405,78.945h-14.817"/>
	</g>
	<g>
		<path style="fill:#010101;" d="M605.675,73.322h8.334v1.557h-3.273v8.74h-1.802v-8.74h-3.259V73.322z"/>
		<path style="fill:#010101;" d="M614.312,73.322h2.539l2.841,8.062h0.029l2.768-8.062H625v10.297h-1.717v-7.946h-0.029
			l-2.855,7.946h-1.487l-2.855-7.946h-0.029v7.946h-1.717V73.322z"/>
	</g>
	<g id="Ellipse_4_copy_00000152955729437572783620000006232935636129581233_">
		<g>
			<path style="fill-rule:evenodd;clip-rule:evenodd;fill:#010101;" d="M530.019,49.794c-2.928-4.178-8.691-5.193-12.873-2.268
				c-4.181,2.926-5.198,8.684-2.27,12.862c2.928,4.178,8.691,5.193,12.873,2.268C531.931,59.73,532.947,53.972,530.019,49.794z"/>
		</g>
	</g>
</g>
</svg>
