<?xml version="1.0" encoding="iso-8859-1"?>
<!-- Generator: Adobe Illustrator 28.1.0, SVG Export Plug-In . SVG Version: 6.00 Build 0)  -->
<svg version="1.1" id="Layer_1" xmlns="http://www.w3.org/2000/svg" xmlns:xlink="http://www.w3.org/1999/xlink" x="0px" y="0px"
	 viewBox="0 0 900 500" style="enable-background:new 0 0 900 500;" xml:space="preserve">
<g>
	<g>
		<g>
			<path style="fill:#010101;" d="M29.688,361.353h20.447l50.501,81.482h0.309v-81.482h18.435v110.605H98.933l-50.347-81.328h-0.464
				v81.328H29.688V361.353z"/>
			<path style="fill:#010101;" d="M133.012,361.353h79.626v16.73h-60.261v28.969h55.768v15.8h-55.768v32.376h61.343v16.73h-80.708
				V361.353z"/>
			<path style="fill:#010101;" d="M211.708,361.353h23.08l25.097,39.037l26.18-39.037h21.686l-36.557,53.289l39.191,57.316h-23.546
				l-27.573-42.29l-28.04,42.29h-22.15l39.191-57.316L211.708,361.353z"/>
			<path style="fill:#010101;" d="M312.396,361.353h48.798c7.845,0,14.25,1.138,19.208,3.409c4.957,2.272,8.778,5.112,11.463,8.519
				c2.685,3.409,4.518,7.127,5.499,11.154c0.982,4.028,1.473,7.746,1.473,11.154c0,3.409-0.491,7.102-1.473,11.076
				c-0.982,3.977-2.815,7.668-5.499,11.076c-2.685,3.407-6.506,6.222-11.463,8.442c-4.957,2.222-11.362,3.331-19.208,3.331h-29.434
				v42.445h-19.365V361.353z M331.761,413.712h28.349c2.169,0,4.388-0.309,6.66-0.929c2.27-0.62,4.363-1.627,6.275-3.021
				c1.909-1.394,3.458-3.253,4.648-5.577c1.185-2.324,1.779-5.241,1.779-8.752c0-3.613-0.518-6.609-1.548-8.985
				c-1.033-2.374-2.427-4.259-4.182-5.654c-1.757-1.394-3.772-2.347-6.042-2.865c-2.272-0.517-4.699-0.776-7.281-0.776h-28.658
				V413.712z"/>
			<path style="fill:#010101;" d="M405.963,361.353h19.365v43.995h50.344v-43.995h19.365v110.605h-19.365v-49.88h-50.344v49.88
				h-19.365V361.353z"/>
			<path style="fill:#010101;" d="M556.068,358.72c8.263,0,15.671,1.548,22.231,4.647c6.557,3.098,12.105,7.281,16.653,12.547
				c4.542,5.268,8.027,11.413,10.457,18.435c2.424,7.025,3.639,14.461,3.639,22.307c0,7.954-1.215,15.439-3.639,22.462
				c-2.43,7.025-5.914,13.167-10.457,18.435c-4.548,5.266-10.096,9.425-16.653,12.47c-6.56,3.045-13.968,4.569-22.231,4.569
				c-8.263,0-15.671-1.524-22.228-4.569c-6.56-3.045-12.111-7.204-16.653-12.47c-4.545-5.268-8.03-11.41-10.457-18.435
				c-2.427-7.022-3.639-14.508-3.639-22.462c0-7.847,1.212-15.282,3.639-22.307c2.427-7.022,5.912-13.167,10.457-18.435
				c4.542-5.266,10.093-9.449,16.653-12.547C540.397,360.268,547.806,358.72,556.068,358.72z M556.068,374.52
				c-5.885,0-10.975,1.189-15.256,3.563c-4.287,2.377-7.772,5.552-10.457,9.526c-2.687,3.977-4.675,8.496-5.966,13.555
				c-1.291,5.062-1.936,10.225-1.936,15.491s0.645,10.432,1.936,15.491c1.291,5.062,3.279,9.581,5.966,13.555
				c2.685,3.977,6.169,7.152,10.457,9.526c4.282,2.377,9.372,3.563,15.256,3.563c5.887,0,10.972-1.186,15.259-3.563
				c4.285-2.374,7.769-5.55,10.457-9.526c2.685-3.974,4.672-8.493,5.963-13.555c1.291-5.059,1.936-10.225,1.936-15.491
				s-0.645-10.43-1.936-15.491c-1.291-5.059-3.279-9.578-5.963-13.555c-2.687-3.974-6.172-7.15-10.457-9.526
				C567.04,375.709,561.956,374.52,556.068,374.52z"/>
			<path style="fill:#010101;" d="M617.412,361.353h52.825c12.184,0,21.325,2.633,27.419,7.901c6.093,5.266,9.139,12.6,9.139,21.997
				c0,5.268-0.773,9.631-2.321,13.09c-1.551,3.462-3.357,6.249-5.424,8.366c-2.066,2.118-4.106,3.641-6.118,4.569
				c-2.015,0.93-3.487,1.548-4.415,1.859v0.309c1.649,0.209,3.43,0.724,5.342,1.55c1.912,0.828,3.693,2.145,5.345,3.95
				c1.651,1.809,3.021,4.159,4.106,7.049c1.085,2.892,1.627,6.506,1.627,10.843c0,6.507,0.488,12.42,1.472,17.738
				c0.979,5.319,2.5,9.116,4.569,11.385H690.22c-1.448-2.374-2.3-5.007-2.557-7.901c-0.258-2.889-0.385-5.678-0.385-8.364
				c0-5.059-0.312-9.423-0.93-13.09c-0.621-3.665-1.757-6.712-3.409-9.14c-1.651-2.426-3.9-4.207-6.739-5.345
				c-2.842-1.135-6.481-1.703-10.92-1.703h-28.503v45.543h-19.365V361.353z M636.776,411.698h31.758
				c6.196,0,10.893-1.471,14.096-4.415c3.2-2.944,4.803-7.358,4.803-13.244c0-3.51-0.518-6.375-1.548-8.598
				c-1.036-2.22-2.457-3.951-4.26-5.19c-1.809-1.239-3.872-2.064-6.196-2.479c-2.324-0.411-4.727-0.62-7.205-0.62h-31.446V411.698z"
				/>
			<path style="fill:#010101;" d="M717.175,361.353h19.365v110.605h-19.365V361.353z"/>
			<path style="fill:#010101;" d="M790.914,380.407h-0.466l-32.376,91.551h-19.983l42.445-110.605h20.604l42.599,110.605h-20.759"/>
		</g>
		<g>
			<path style="fill:#010101;" d="M843.237,361.354h11.677v2.182h-4.586v12.245h-2.525v-12.245h-4.567V361.354z"/>
			<path style="fill:#010101;" d="M855.337,361.354h3.558l3.981,11.295h0.041l3.878-11.295h3.517v14.427h-2.405v-11.133h-0.041
				l-4,11.133h-2.083l-4-11.133h-0.041v11.133h-2.405V361.354z"/>
		</g>
		<g id="Ellipse_4_copy">
			<g>
				<path style="fill-rule:evenodd;clip-rule:evenodd;fill:#010101;" d="M737.24,328.39c-4.102-5.854-12.176-7.276-18.035-3.177
					c-5.858,4.099-7.283,12.167-3.18,18.021c4.102,5.854,12.177,7.276,18.035,3.177C739.918,342.312,741.343,334.244,737.24,328.39z
					"/>
			</g>
		</g>
	</g>
	<g>
		<circle style="fill:#A4B08A;" cx="378.955" cy="164.514" r="29.98"/>
		<path style="fill:#A4B08A;" d="M541.708,142.659c-7.452-6.997-17.163-9.4-26.127-7.738c-7.811,1.448-15.875-0.049-22.181-4.882
			l-2.862-2.193c-6.403-4.907-10.012-12.409-10.691-20.448c-0.703-8.313-4.849-16.286-12.104-21.613
			c-7.015-5.15-15.521-6.789-23.437-5.249c-7.589,1.476-15.448,0.041-21.584-4.661l-3.127-2.396
			c-6.455-4.947-10.097-12.504-10.801-20.605c-0.747-8.595-5.176-16.838-12.991-22.168c-12.51-8.532-29.952-6.143-39.726,5.423
			c-11.065,13.093-8.925,32.625,4.475,43.044c7.145,5.556,16.004,7.354,24.231,5.713c7.759-1.548,15.805,0.371,22.085,5.184
			l2.593,1.987c6.403,4.907,10.012,12.409,10.692,20.448c0.703,8.313,4.849,16.286,12.104,21.613
			c7.015,5.15,15.521,6.789,23.437,5.249c7.589-1.476,15.448-0.041,21.584,4.661l3.214,2.463
			c6.123,4.692,10.229,11.734,10.624,19.438c0.456,8.906,4.861,17.514,12.732,23.026c14.487,10.146,34.829,5.695,43.564-10.276
			C553.857,166.897,551.498,151.852,541.708,142.659z"/>
		<circle style="fill:#A4B08A;" cx="521.047" cy="55.389" r="29.98"/>
	</g>
</g>
</svg>
