<?xml version="1.0" encoding="iso-8859-1"?>
<!-- Generator: Adobe Illustrator 28.1.0, SVG Export Plug-In . SVG Version: 6.00 Build 0)  -->
<svg version="1.1" id="Layer_1" xmlns="http://www.w3.org/2000/svg" xmlns:xlink="http://www.w3.org/1999/xlink" x="0px" y="0px"
	 viewBox="0 0 600 500" style="enable-background:new 0 0 600 500;" xml:space="preserve">
<g>
	<g>
		<circle style="fill:#010101;" cx="129.698" cy="380.792" r="71.864"/>
		<path style="fill:#010101;" d="M519.834,328.405c-17.864-16.774-41.141-22.533-62.628-18.55
			c-18.724,3.471-38.055-0.118-53.17-11.702l-6.86-5.257c-15.349-11.763-23.999-29.746-25.629-49.016
			c-1.685-19.927-11.623-39.039-29.014-51.808c-16.815-12.346-37.204-16.273-56.18-12.583c-18.19,3.537-37.03,0.099-51.739-11.173
			l-7.496-5.744c-15.472-11.857-24.203-29.973-25.892-49.393c-1.792-20.603-12.408-40.363-31.14-53.138
			c-29.987-20.451-71.799-14.725-95.228,12.998c-26.524,31.385-21.393,78.205,10.727,103.18
			c17.127,13.317,38.364,17.629,58.085,13.695c18.6-3.71,37.886,0.889,52.94,12.426l6.216,4.764
			c15.349,11.763,23.999,29.746,25.629,49.016c1.685,19.927,11.623,39.039,29.014,51.809c16.815,12.346,37.204,16.273,56.18,12.583
			c18.19-3.537,37.03-0.099,51.739,11.173l7.704,5.904c14.677,11.248,24.521,28.127,25.467,46.594
			c1.094,21.348,11.653,41.983,30.521,55.197c34.727,24.32,83.49,13.65,104.428-24.632
			C548.956,386.504,543.301,350.44,519.834,328.405z"/>
		<circle style="fill:#010101;" cx="470.305" cy="119.208" r="71.864"/>
	</g>
</g>
</svg>
